<svg width="300" height="300" viewBox="0 0 300 300" xmlns="http://www.w3.org/2000/svg">
  <defs>
    <linearGradient id="rocketGradient" x1="0%" y1="0%" x2="100%" y2="100%">
      <stop offset="0%" style="stop-color:#4F46E5;stop-opacity:1" />
      <stop offset="100%" style="stop-color:#6366F1;stop-opacity:1" />
    </linearGradient>
    <linearGradient id="windowGradient" x1="0%" y1="0%" x2="100%" y2="100%">
      <stop offset="0%" style="stop-color:#E0E7FF;stop-opacity:1" />
      <stop offset="100%" style="stop-color:#C7D2FE;stop-opacity:1" />
    </linearGradient>
    <linearGradient id="flameGradient" x1="0%" y1="0%" x2="100%" y2="100%">
      <stop offset="0%" style="stop-color:#F59E0B;stop-opacity:1" />
      <stop offset="50%" style="stop-color:#EF4444;stop-opacity:1" />
      <stop offset="100%" style="stop-color:#DC2626;stop-opacity:1" />
    </linearGradient>
    <filter id="shadow" x="-20%" y="-20%" width="140%" height="140%">
      <feDropShadow dx="0" dy="4" stdDeviation="8" flood-color="#000000" flood-opacity="0.1"/>
    </filter>
  </defs>
  
  <!-- Background Circle -->
  <circle cx="150" cy="150" r="140" fill="url(#rocketGradient)" filter="url(#shadow)"/>
  
  <!-- Rocket Body -->
  <ellipse cx="150" cy="180" rx="35" ry="80" fill="white" stroke="#E5E7EB" stroke-width="2" transform="rotate(45 150 150)"/>
  
  <!-- Rocket Nose -->
  <path d="M 150 100 L 130 140 L 170 140 Z" fill="white" stroke="#E5E7EB" stroke-width="2" transform="rotate(45 150 150)"/>
  
  <!-- Rocket Windows -->
  <circle cx="150" cy="160" r="12" fill="url(#windowGradient)" stroke="#E5E7EB" stroke-width="2" transform="rotate(45 150 150)"/>
  <circle cx="150" cy="200" r="8" fill="url(#windowGradient)" stroke="#E5E7EB" stroke-width="2" transform="rotate(45 150 150)"/>
  
  <!-- Rocket Fins -->
  <path d="M 115 240 L 95 280 L 135 240 Z" fill="#4F46E5" stroke="#E5E7EB" stroke-width="2" transform="rotate(45 150 150)"/>
  <path d="M 185 240 L 205 280 L 165 240 Z" fill="#4F46E5" stroke="#E5E7EB" stroke-width="2" transform="rotate(45 150 150)"/>
  
  <!-- Rocket Flames -->
  <path d="M 140 260 L 130 290 L 150 260 L 170 290 L 160 260 Z" fill="url(#flameGradient)" transform="rotate(45 150 150)"/>
  <path d="M 145 265 L 140 285 L 150 265 L 160 285 L 155 265 Z" fill="#FEF3C7" transform="rotate(45 150 150)"/>
  
  <!-- Stars -->
  <circle cx="80" cy="80" r="2" fill="#FBBF24"/>
  <circle cx="220" cy="60" r="1.5" fill="#FBBF24"/>
  <circle cx="70" cy="120" r="1" fill="#FBBF24"/>
  <circle cx="240" cy="100" r="1.5" fill="#FBBF24"/>
  <circle cx="90" cy="50" r="1" fill="#FBBF24"/>
  <circle cx="200" cy="80" r="1" fill="#FBBF24"/>
  
  <!-- Rocket Details -->
  <line x1="150" y1="140" x2="150" y2="160" stroke="#E5E7EB" stroke-width="2" transform="rotate(45 150 150)"/>
  <line x1="150" y1="180" x2="150" y2="200" stroke="#E5E7EB" stroke-width="2" transform="rotate(45 150 150)"/>
  
  <!-- Antenna -->
  <line x1="150" y1="100" x2="150" y2="90" stroke="#4F46E5" stroke-width="3" transform="rotate(45 150 150)"/>
  <circle cx="150" cy="85" r="3" fill="#4F46E5" transform="rotate(45 150 150)"/>
  
  <!-- Speed Lines -->
  <path d="M 200 120 Q 220 130 240 125" stroke="#E5E7EB" stroke-width="2" fill="none" opacity="0.6"/>
  <path d="M 200 140 Q 220 150 240 145" stroke="#E5E7EB" stroke-width="2" fill="none" opacity="0.6"/>
  <path d="M 200 160 Q 220 170 240 165" stroke="#E5E7EB" stroke-width="2" fill="none" opacity="0.6"/>
</svg> 